<?xml version="1.0" encoding="iso-8859-1"?>
<!-- Generator: Adobe Illustrator 19.0.0, SVG Export Plug-In . SVG Version: 6.00 Build 0)  -->
<svg version="1.1" id="Capa_1" xmlns="http://www.w3.org/2000/svg" xmlns:xlink="http://www.w3.org/1999/xlink" x="0px" y="0px"
	 viewBox="0 0 512.005 512.005" style="enable-background:new 0 0 512.005 512.005;" xml:space="preserve">
<g>
	<g>
		<g>
			<path d="M507.024,4.978c-6.619-6.638-17.366-6.638-23.995,0L4.981,483.036c-6.628,6.619-6.628,17.376,0,24.004
				c3.31,3.31,7.649,4.964,11.997,4.964c4.339,0,8.688-1.646,11.997-4.974L507.024,28.973
				C513.653,22.354,513.653,11.607,507.024,4.978z"/>
			<path d="M198.318,222.32c3.31,3.319,7.649,4.974,11.997,4.974c4.349,0,8.688-1.655,11.997-4.974
				c6.628-6.619,6.628-17.366,0-23.995L28.975,4.987c-6.619-6.638-17.366-6.638-23.995,0c-6.628,6.619-6.628,17.366,0,23.995
				L198.318,222.32z"/>
			<path d="M315.047,291.059c-6.628-6.647-17.366-6.638-23.995-0.009c-6.638,6.628-6.638,17.366-0.009,23.995L483.011,507.04
				c3.328,3.31,7.658,4.964,12.007,4.964c4.339,0,8.688-1.646,11.997-4.955c6.628-6.619,6.628-17.376,0-24.004L315.047,291.059z"/>
		</g>
	</g>
</g>
<g>
</g>
<g>
</g>
<g>
</g>
<g>
</g>
<g>
</g>
<g>
</g>
<g>
</g>
<g>
</g>
<g>
</g>
<g>
</g>
<g>
</g>
<g>
</g>
<g>
</g>
<g>
</g>
<g>
</g>
</svg>
