<svg width="106" height="28" viewBox="0 0 106 28" fill="none" xmlns="http://www.w3.org/2000/svg">
    <rect width="106" height="27" fill="black"/>
    <path d="M11.0576 18H9.44629L6.30957 12.8545V18H4.69824V10.1797H6.30957L9.45166 15.3359V10.1797H11.0576V18ZM15.0376 18.1074C14.1854 18.1074 13.4907 17.846 12.9536 17.3232C12.4201 16.8005 12.1533 16.104 12.1533 15.2339V15.0835C12.1533 14.4998 12.2661 13.9788 12.4917 13.5205C12.7173 13.0586 13.036 12.7041 13.4478 12.457C13.8631 12.2064 14.3358 12.0811 14.8657 12.0811C15.6606 12.0811 16.2855 12.3317 16.7402 12.833C17.1986 13.3343 17.4277 14.0451 17.4277 14.9653V15.5991H13.7271C13.7772 15.9787 13.9276 16.283 14.1782 16.5122C14.4325 16.7414 14.7529 16.856 15.1396 16.856C15.7376 16.856 16.2049 16.6393 16.5415 16.2061L17.3042 17.0601C17.0715 17.3895 16.7563 17.6473 16.3589 17.8335C15.9614 18.0161 15.521 18.1074 15.0376 18.1074ZM14.8604 13.3379C14.5524 13.3379 14.3018 13.4417 14.1084 13.6494C13.9186 13.8571 13.7969 14.1543 13.7432 14.541H15.9023V14.4175C15.8952 14.0737 15.8021 13.8088 15.623 13.6226C15.444 13.4328 15.1898 13.3379 14.8604 13.3379ZM20.5269 13.9233L21.5044 12.1885H23.1641L21.5098 15.0352L23.2339 18H21.5688L20.5322 16.1738L19.501 18H17.8306L19.5547 15.0352L17.9058 12.1885H19.5708L20.5269 13.9233ZM25.769 10.7598V12.1885H26.7627V13.3271H25.769V16.2275C25.769 16.4424 25.8102 16.5964 25.8926 16.6895C25.9749 16.7826 26.1325 16.8291 26.3652 16.8291C26.5371 16.8291 26.6893 16.8166 26.8218 16.7915V17.9678C26.5174 18.0609 26.2041 18.1074 25.8818 18.1074C24.7933 18.1074 24.2383 17.5578 24.2168 16.4585V13.3271H23.3682V12.1885H24.2168V10.7598H25.769ZM30.8823 10.1797H32.4937V15.5938C32.4937 16.0915 32.3826 16.5319 32.1606 16.915C31.9422 17.2946 31.6325 17.5882 31.2314 17.7959C30.8304 18.0036 30.3774 18.1074 29.8726 18.1074C29.0454 18.1074 28.4009 17.8979 27.939 17.479C27.4771 17.0565 27.2461 16.4603 27.2461 15.6904H28.8682C28.8682 16.0736 28.9487 16.3564 29.1099 16.5391C29.271 16.7217 29.5252 16.813 29.8726 16.813C30.1805 16.813 30.4258 16.7074 30.6084 16.4961C30.791 16.2848 30.8823 15.984 30.8823 15.5938V10.1797ZM37.9292 15.9482C37.9292 15.6439 37.8218 15.4111 37.6069 15.25C37.3921 15.0853 37.0054 14.9134 36.4468 14.7344C35.8882 14.5518 35.446 14.3727 35.1201 14.1973C34.2321 13.7174 33.7881 13.0711 33.7881 12.2583C33.7881 11.8358 33.9062 11.4598 34.1426 11.1304C34.3825 10.7974 34.7244 10.5378 35.1685 10.3516C35.616 10.1654 36.1174 10.0723 36.6724 10.0723C37.231 10.0723 37.7287 10.1743 38.1655 10.3784C38.6024 10.5789 38.9408 10.8636 39.1807 11.2324C39.4242 11.6012 39.5459 12.0202 39.5459 12.4893H37.9346C37.9346 12.1312 37.8218 11.8537 37.5962 11.6567C37.3706 11.4562 37.0537 11.356 36.6455 11.356C36.2516 11.356 35.9455 11.4401 35.7271 11.6084C35.5086 11.7731 35.3994 11.9915 35.3994 12.2637C35.3994 12.5179 35.5265 12.731 35.7808 12.9028C36.0386 13.0747 36.4163 13.2358 36.9141 13.3862C37.8307 13.6619 38.4985 14.0039 38.9175 14.4121C39.3364 14.8203 39.5459 15.3288 39.5459 15.9375C39.5459 16.6143 39.2899 17.146 38.7778 17.5327C38.2658 17.9159 37.5765 18.1074 36.71 18.1074C36.1084 18.1074 35.5605 17.9982 35.0664 17.7798C34.5723 17.5578 34.1945 17.2552 33.9331 16.8721C33.6753 16.4889 33.5464 16.0449 33.5464 15.54H35.1631C35.1631 16.403 35.6787 16.8345 36.71 16.8345C37.0931 16.8345 37.3921 16.7575 37.6069 16.6035C37.8218 16.446 37.9292 16.2275 37.9292 15.9482Z" fill="white"/>
    <rect x="44" width="62" height="28" fill="#ECECEC"/>
    <path d="M55.9121 17.5293L57.4824 12.6602H58.5898L56.3164 19H55.4902L53.1934 12.6602H54.3008L55.9121 17.5293ZM63.084 19H61.9941V11.7754L59.8086 12.5781V11.5938L62.9141 10.4277H63.084V19ZM71.6094 15.3613C71.6094 16.6309 71.3926 17.5742 70.959 18.1914C70.5254 18.8086 69.8477 19.1172 68.9258 19.1172C68.0156 19.1172 67.3418 18.8164 66.9043 18.2148C66.4668 17.6094 66.2402 16.707 66.2246 15.5078V14.0605C66.2246 12.8066 66.4414 11.875 66.875 11.2656C67.3086 10.6562 67.9883 10.3516 68.9141 10.3516C69.832 10.3516 70.5078 10.6465 70.9414 11.2363C71.375 11.8223 71.5977 12.7285 71.6094 13.9551V15.3613ZM70.5254 13.8789C70.5254 12.9609 70.3965 12.293 70.1387 11.875C69.8809 11.4531 69.4727 11.2422 68.9141 11.2422C68.3594 11.2422 67.9551 11.4512 67.7012 11.8691C67.4473 12.2871 67.3164 12.9297 67.3086 13.7969V15.5312C67.3086 16.4531 67.4414 17.1348 67.707 17.5762C67.9766 18.0137 68.3828 18.2324 68.9258 18.2324C69.4609 18.2324 69.8574 18.0254 70.1152 17.6113C70.377 17.1973 70.5137 16.5449 70.5254 15.6543V13.8789ZM73.1328 18.4316C73.1328 18.2441 73.1875 18.0879 73.2969 17.9629C73.4102 17.8379 73.5781 17.7754 73.8008 17.7754C74.0234 17.7754 74.1914 17.8379 74.3047 17.9629C74.4219 18.0879 74.4805 18.2441 74.4805 18.4316C74.4805 18.6113 74.4219 18.7617 74.3047 18.8828C74.1914 19.0039 74.0234 19.0645 73.8008 19.0645C73.5781 19.0645 73.4102 19.0039 73.2969 18.8828C73.1875 18.7617 73.1328 18.6113 73.1328 18.4316ZM81.5117 15.3613C81.5117 16.6309 81.2949 17.5742 80.8613 18.1914C80.4277 18.8086 79.75 19.1172 78.8281 19.1172C77.918 19.1172 77.2441 18.8164 76.8066 18.2148C76.3691 17.6094 76.1426 16.707 76.127 15.5078V14.0605C76.127 12.8066 76.3438 11.875 76.7773 11.2656C77.2109 10.6562 77.8906 10.3516 78.8164 10.3516C79.7344 10.3516 80.4102 10.6465 80.8438 11.2363C81.2773 11.8223 81.5 12.7285 81.5117 13.9551V15.3613ZM80.4277 13.8789C80.4277 12.9609 80.2988 12.293 80.041 11.875C79.7832 11.4531 79.375 11.2422 78.8164 11.2422C78.2617 11.2422 77.8574 11.4512 77.6035 11.8691C77.3496 12.2871 77.2188 12.9297 77.2109 13.7969V15.5312C77.2109 16.4531 77.3438 17.1348 77.6094 17.5762C77.8789 18.0137 78.2852 18.2324 78.8281 18.2324C79.3633 18.2324 79.7598 18.0254 80.0176 17.6113C80.2793 17.1973 80.416 16.5449 80.4277 15.6543V13.8789ZM83.0352 18.4316C83.0352 18.2441 83.0898 18.0879 83.1992 17.9629C83.3125 17.8379 83.4805 17.7754 83.7031 17.7754C83.9258 17.7754 84.0938 17.8379 84.207 17.9629C84.3242 18.0879 84.3828 18.2441 84.3828 18.4316C84.3828 18.6113 84.3242 18.7617 84.207 18.8828C84.0938 19.0039 83.9258 19.0645 83.7031 19.0645C83.4805 19.0645 83.3125 19.0039 83.1992 18.8828C83.0898 18.7617 83.0352 18.6113 83.0352 18.4316ZM90.3184 10.4629V11.3828H90.1191C89.2754 11.3984 88.6035 11.6484 88.1035 12.1328C87.6035 12.6172 87.3145 13.2988 87.2363 14.1777C87.6855 13.6621 88.2988 13.4043 89.0762 13.4043C89.8184 13.4043 90.4102 13.666 90.8516 14.1895C91.2969 14.7129 91.5195 15.3887 91.5195 16.2168C91.5195 17.0957 91.2793 17.7988 90.7988 18.3262C90.3223 18.8535 89.6816 19.1172 88.877 19.1172C88.0605 19.1172 87.3984 18.8047 86.8906 18.1797C86.3828 17.5508 86.1289 16.7422 86.1289 15.7539V15.3379C86.1289 13.7676 86.4629 12.5684 87.1309 11.7402C87.8027 10.9082 88.8008 10.4824 90.125 10.4629H90.3184ZM88.8945 14.3066C88.5234 14.3066 88.1816 14.418 87.8691 14.6406C87.5566 14.8633 87.3398 15.1426 87.2188 15.4785V15.877C87.2188 16.5801 87.377 17.1465 87.6934 17.5762C88.0098 18.0059 88.4043 18.2207 88.877 18.2207C89.3652 18.2207 89.748 18.041 90.0254 17.6816C90.3066 17.3223 90.4473 16.8516 90.4473 16.2695C90.4473 15.6836 90.3047 15.2109 90.0195 14.8516C89.7383 14.4883 89.3633 14.3066 88.8945 14.3066Z" fill="black"/>
</svg>
