<svg width="106" height="28" viewBox="0 0 106 28" fill="none" xmlns="http://www.w3.org/2000/svg">
    <rect width="106" height="27" fill="black"/>
    <path d="M14.3408 18H12.4365L8.72949 11.9189V18H6.8252V8.75781H8.72949L12.4429 14.8516V8.75781H14.3408V18ZM23.5957 13.5884C23.5957 14.4982 23.4349 15.2959 23.1133 15.9814C22.7917 16.667 22.3304 17.196 21.7295 17.5684C21.1328 17.9408 20.4473 18.127 19.6729 18.127C18.9069 18.127 18.2235 17.9429 17.6226 17.5747C17.0216 17.2065 16.5562 16.6818 16.2261 16.0005C15.896 15.3149 15.7288 14.5278 15.7246 13.6392V13.1821C15.7246 12.2723 15.8875 11.4725 16.2134 10.7827C16.5435 10.0887 17.0068 9.55762 17.6035 9.18945C18.2044 8.81706 18.89 8.63086 19.6602 8.63086C20.4303 8.63086 21.1138 8.81706 21.7104 9.18945C22.3114 9.55762 22.7747 10.0887 23.1006 10.7827C23.4307 11.4725 23.5957 12.2702 23.5957 13.1758V13.5884ZM21.666 13.1694C21.666 12.2004 21.4925 11.464 21.1455 10.9604C20.7985 10.4569 20.3034 10.2051 19.6602 10.2051C19.0212 10.2051 18.5282 10.4548 18.1812 10.9541C17.8341 11.4492 17.6585 12.1771 17.6543 13.1377V13.5884C17.6543 14.5321 17.8278 15.2642 18.1748 15.7847C18.5218 16.3052 19.0212 16.5654 19.6729 16.5654C20.3118 16.5654 20.8027 16.3158 21.1455 15.8164C21.4883 15.3128 21.6618 14.5807 21.666 13.6201V13.1694ZM24.9795 18V8.75781H27.8232C28.6357 8.75781 29.3615 8.94189 30.0005 9.31006C30.6437 9.67399 31.1452 10.1945 31.5049 10.8716C31.8646 11.5444 32.0444 12.3104 32.0444 13.1694V13.5947C32.0444 14.4538 31.8667 15.2176 31.5112 15.8862C31.16 16.5549 30.6628 17.0732 30.0195 17.4414C29.3763 17.8096 28.6506 17.9958 27.8423 18H24.9795ZM26.8838 10.3003V16.4702H27.8042C28.549 16.4702 29.1182 16.2269 29.5117 15.7402C29.9053 15.2536 30.1063 14.5575 30.1147 13.6519V13.1631C30.1147 12.2236 29.9201 11.5127 29.5308 11.0303C29.1414 10.5436 28.5723 10.3003 27.8232 10.3003H26.8838ZM38.9951 13.9946H35.3389V16.4702H39.6299V18H33.4346V8.75781H39.6172V10.3003H35.3389V12.5029H38.9951V13.9946Z" fill="white"/>
    <rect x="44" width="62" height="28" fill="#ECECEC"/>
    <path d="M55.9121 17.5293L57.4824 12.6602H58.5898L56.3164 19H55.4902L53.1934 12.6602H54.3008L55.9121 17.5293ZM63.084 19H61.9941V11.7754L59.8086 12.5781V11.5938L62.9141 10.4277H63.084V19ZM66.7578 14.7227L67.1914 10.4688H71.5625V11.4707H68.1113L67.8535 13.7969C68.2715 13.5508 68.7461 13.4277 69.2773 13.4277C70.0547 13.4277 70.6719 13.6855 71.1289 14.2012C71.5859 14.7129 71.8145 15.4062 71.8145 16.2812C71.8145 17.1602 71.5762 17.8535 71.0996 18.3613C70.627 18.8652 69.9648 19.1172 69.1133 19.1172C68.3594 19.1172 67.7441 18.9082 67.2676 18.4902C66.791 18.0723 66.5195 17.4941 66.4531 16.7559H67.4785C67.5449 17.2441 67.7188 17.6133 68 17.8633C68.2812 18.1094 68.6523 18.2324 69.1133 18.2324C69.6172 18.2324 70.0117 18.0605 70.2969 17.7168C70.5859 17.373 70.7305 16.8984 70.7305 16.293C70.7305 15.7227 70.5742 15.2656 70.2617 14.9219C69.9531 14.5742 69.541 14.4004 69.0254 14.4004C68.5527 14.4004 68.1816 14.5039 67.9121 14.7109L67.625 14.9453L66.7578 14.7227ZM73.1328 18.4316C73.1328 18.2441 73.1875 18.0879 73.2969 17.9629C73.4102 17.8379 73.5781 17.7754 73.8008 17.7754C74.0234 17.7754 74.1914 17.8379 74.3047 17.9629C74.4219 18.0879 74.4805 18.2441 74.4805 18.4316C74.4805 18.6113 74.4219 18.7617 74.3047 18.8828C74.1914 19.0039 74.0234 19.0645 73.8008 19.0645C73.5781 19.0645 73.4102 19.0039 73.2969 18.8828C73.1875 18.7617 73.1328 18.6113 73.1328 18.4316ZM80.7383 16.1348H81.9219V17.0195H80.7383V19H79.6484V17.0195H75.7637V16.3809L79.584 10.4688H80.7383V16.1348ZM76.9941 16.1348H79.6484V11.9512L79.5195 12.1855L76.9941 16.1348ZM83.0352 18.4316C83.0352 18.2441 83.0898 18.0879 83.1992 17.9629C83.3125 17.8379 83.4805 17.7754 83.7031 17.7754C83.9258 17.7754 84.0938 17.8379 84.207 17.9629C84.3242 18.0879 84.3828 18.2441 84.3828 18.4316C84.3828 18.6113 84.3242 18.7617 84.207 18.8828C84.0938 19.0039 83.9258 19.0645 83.7031 19.0645C83.4805 19.0645 83.3125 19.0039 83.1992 18.8828C83.0898 18.7617 83.0352 18.6113 83.0352 18.4316ZM91.4141 15.3613C91.4141 16.6309 91.1973 17.5742 90.7637 18.1914C90.3301 18.8086 89.6523 19.1172 88.7305 19.1172C87.8203 19.1172 87.1465 18.8164 86.709 18.2148C86.2715 17.6094 86.0449 16.707 86.0293 15.5078V14.0605C86.0293 12.8066 86.2461 11.875 86.6797 11.2656C87.1133 10.6562 87.793 10.3516 88.7188 10.3516C89.6367 10.3516 90.3125 10.6465 90.7461 11.2363C91.1797 11.8223 91.4023 12.7285 91.4141 13.9551V15.3613ZM90.3301 13.8789C90.3301 12.9609 90.2012 12.293 89.9434 11.875C89.6855 11.4531 89.2773 11.2422 88.7188 11.2422C88.1641 11.2422 87.7598 11.4512 87.5059 11.8691C87.252 12.2871 87.1211 12.9297 87.1133 13.7969V15.5312C87.1133 16.4531 87.2461 17.1348 87.5117 17.5762C87.7812 18.0137 88.1875 18.2324 88.7305 18.2324C89.2656 18.2324 89.6621 18.0254 89.9199 17.6113C90.1816 17.1973 90.3184 16.5449 90.3301 15.6543V13.8789Z" fill="black"/>
</svg>
