<svg width="106" height="28" viewBox="0 0 106 28" fill="none" xmlns="http://www.w3.org/2000/svg">
    <rect width="106" height="27" fill="black"/>
    <path d="M15.3408 18H13.4365L9.72949 11.9189V18H7.8252V8.75781H9.72949L13.4429 14.8516V8.75781H15.3408V18ZM18.9082 14.7437V18H17.0039V8.75781H20.6094C21.3034 8.75781 21.9128 8.88477 22.4375 9.13867C22.9665 9.39258 23.3727 9.75439 23.6562 10.2241C23.9398 10.6896 24.0815 11.2207 24.0815 11.8174C24.0815 12.723 23.7705 13.4382 23.1484 13.9629C22.5306 14.4834 21.6737 14.7437 20.5776 14.7437H18.9082ZM18.9082 13.2012H20.6094C21.113 13.2012 21.4959 13.0827 21.7583 12.8457C22.0249 12.6087 22.1582 12.2702 22.1582 11.8301C22.1582 11.3773 22.0249 11.0112 21.7583 10.7319C21.4917 10.4526 21.1235 10.3088 20.6538 10.3003H18.9082V13.2012ZM27.8838 8.75781L30.2578 15.4609L32.6191 8.75781H35.1201V18H33.2095V15.4736L33.3999 11.1128L30.9053 18H29.5977L27.1094 11.1191L27.2998 15.4736V18H25.3955V8.75781H27.8838Z" fill="white"/>
    <rect x="44" width="62" height="28" fill="#ECECEC"/>
    <path d="M55.9121 17.5293L57.4824 12.6602H58.5898L56.3164 19H55.4902L53.1934 12.6602H54.3008L55.9121 17.5293ZM65.0293 11.0781L61.4961 19H60.3594L63.8809 11.3594H59.2637V10.4688H65.0293V11.0781ZM66.3945 18.4316C66.3945 18.2441 66.4492 18.0879 66.5586 17.9629C66.6719 17.8379 66.8398 17.7754 67.0625 17.7754C67.2852 17.7754 67.4531 17.8379 67.5664 17.9629C67.6836 18.0879 67.7422 18.2441 67.7422 18.4316C67.7422 18.6113 67.6836 18.7617 67.5664 18.8828C67.4531 19.0039 67.2852 19.0645 67.0625 19.0645C66.8398 19.0645 66.6719 19.0039 66.5586 18.8828C66.4492 18.7617 66.3945 18.6113 66.3945 18.4316ZM74.7734 15.3613C74.7734 16.6309 74.5566 17.5742 74.123 18.1914C73.6895 18.8086 73.0117 19.1172 72.0898 19.1172C71.1797 19.1172 70.5059 18.8164 70.0684 18.2148C69.6309 17.6094 69.4043 16.707 69.3887 15.5078V14.0605C69.3887 12.8066 69.6055 11.875 70.0391 11.2656C70.4727 10.6562 71.1523 10.3516 72.0781 10.3516C72.9961 10.3516 73.6719 10.6465 74.1055 11.2363C74.5391 11.8223 74.7617 12.7285 74.7734 13.9551V15.3613ZM73.6895 13.8789C73.6895 12.9609 73.5605 12.293 73.3027 11.875C73.0449 11.4531 72.6367 11.2422 72.0781 11.2422C71.5234 11.2422 71.1191 11.4512 70.8652 11.8691C70.6113 12.2871 70.4805 12.9297 70.4727 13.7969V15.5312C70.4727 16.4531 70.6055 17.1348 70.8711 17.5762C71.1406 18.0137 71.5469 18.2324 72.0898 18.2324C72.625 18.2324 73.0215 18.0254 73.2793 17.6113C73.541 17.1973 73.6777 16.5449 73.6895 15.6543V13.8789ZM76.2969 18.4316C76.2969 18.2441 76.3516 18.0879 76.4609 17.9629C76.5742 17.8379 76.7422 17.7754 76.9648 17.7754C77.1875 17.7754 77.3555 17.8379 77.4688 17.9629C77.5859 18.0879 77.6445 18.2441 77.6445 18.4316C77.6445 18.6113 77.5859 18.7617 77.4688 18.8828C77.3555 19.0039 77.1875 19.0645 76.9648 19.0645C76.7422 19.0645 76.5742 19.0039 76.4609 18.8828C76.3516 18.7617 76.2969 18.6113 76.2969 18.4316ZM82.8887 19H81.7988V11.7754L79.6133 12.5781V11.5938L82.7188 10.4277H82.8887V19ZM86.5625 14.7227L86.9961 10.4688H91.3672V11.4707H87.916L87.6582 13.7969C88.0762 13.5508 88.5508 13.4277 89.082 13.4277C89.8594 13.4277 90.4766 13.6855 90.9336 14.2012C91.3906 14.7129 91.6191 15.4062 91.6191 16.2812C91.6191 17.1602 91.3809 17.8535 90.9043 18.3613C90.4316 18.8652 89.7695 19.1172 88.918 19.1172C88.1641 19.1172 87.5488 18.9082 87.0723 18.4902C86.5957 18.0723 86.3242 17.4941 86.2578 16.7559H87.2832C87.3496 17.2441 87.5234 17.6133 87.8047 17.8633C88.0859 18.1094 88.457 18.2324 88.918 18.2324C89.4219 18.2324 89.8164 18.0605 90.1016 17.7168C90.3906 17.373 90.5352 16.8984 90.5352 16.293C90.5352 15.7227 90.3789 15.2656 90.0664 14.9219C89.7578 14.5742 89.3457 14.4004 88.8301 14.4004C88.3574 14.4004 87.9863 14.5039 87.7168 14.7109L87.4297 14.9453L86.5625 14.7227Z" fill="black"/>
</svg>
