<svg width="106" height="28" viewBox="0 0 106 28" fill="none" xmlns="http://www.w3.org/2000/svg">
    <rect width="106" height="27" fill="black"/>
    <path d="M9.59326 15.1372H8.30957V18H6.69824V10.1797H9.604C10.5278 10.1797 11.2404 10.3856 11.7417 10.7974C12.243 11.2091 12.4937 11.791 12.4937 12.543C12.4937 13.0765 12.3773 13.5223 12.1445 13.8804C11.9154 14.2349 11.5662 14.5177 11.0972 14.729L12.7891 17.9248V18H11.0596L9.59326 15.1372ZM8.30957 13.832H9.60938C10.014 13.832 10.3273 13.73 10.5493 13.5259C10.7713 13.3182 10.8823 13.0335 10.8823 12.6719C10.8823 12.3031 10.7767 12.013 10.5654 11.8018C10.3577 11.5905 10.0373 11.4849 9.604 11.4849H8.30957V13.832ZM18.4287 14.6108H15.335V16.7056H18.9658V18H13.7236V10.1797H18.9551V11.4849H15.335V13.3486H18.4287V14.6108ZM24.3262 16.3887H21.501L20.9639 18H19.2505L22.1616 10.1797H23.6548L26.582 18H24.8687L24.3262 16.3887ZM21.936 15.0835H23.8911L22.9082 12.1562L21.936 15.0835ZM33.3335 15.395C33.2726 16.2365 32.9611 16.8989 32.3989 17.3823C31.8403 17.8657 31.1027 18.1074 30.186 18.1074C29.1834 18.1074 28.3939 17.7708 27.8174 17.0977C27.2445 16.4209 26.958 15.4935 26.958 14.3154V13.8374C26.958 13.0854 27.0905 12.423 27.3555 11.8501C27.6204 11.2772 27.9982 10.8385 28.4888 10.5342C28.9829 10.2262 29.5558 10.0723 30.2075 10.0723C31.1099 10.0723 31.8368 10.314 32.3882 10.7974C32.9396 11.2808 33.2583 11.9593 33.3442 12.833H31.7329C31.6935 12.3281 31.5521 11.9629 31.3086 11.7373C31.0687 11.5081 30.7017 11.3936 30.2075 11.3936C29.6704 11.3936 29.2676 11.5869 28.999 11.9736C28.734 12.3568 28.598 12.953 28.5908 13.7622V14.353C28.5908 15.1981 28.7179 15.8158 28.9722 16.2061C29.23 16.5964 29.6346 16.7915 30.186 16.7915C30.6838 16.7915 31.0544 16.6787 31.2979 16.4531C31.5449 16.224 31.6864 15.8713 31.7222 15.395H33.3335ZM40.1172 11.4849H37.7217V18H36.1104V11.4849H33.7471V10.1797H40.1172V11.4849Z" fill="white"/>
    <rect x="44" width="62" height="28" fill="#ECECEC"/>
    <path d="M55.9121 17.5293L57.4824 12.6602H58.5898L56.3164 19H55.4902L53.1934 12.6602H54.3008L55.9121 17.5293ZM63.084 19H61.9941V11.7754L59.8086 12.5781V11.5938L62.9141 10.4277H63.084V19ZM70.5137 10.4629V11.3828H70.3145C69.4707 11.3984 68.7988 11.6484 68.2988 12.1328C67.7988 12.6172 67.5098 13.2988 67.4316 14.1777C67.8809 13.6621 68.4941 13.4043 69.2715 13.4043C70.0137 13.4043 70.6055 13.666 71.0469 14.1895C71.4922 14.7129 71.7148 15.3887 71.7148 16.2168C71.7148 17.0957 71.4746 17.7988 70.9941 18.3262C70.5176 18.8535 69.877 19.1172 69.0723 19.1172C68.2559 19.1172 67.5938 18.8047 67.0859 18.1797C66.5781 17.5508 66.3242 16.7422 66.3242 15.7539V15.3379C66.3242 13.7676 66.6582 12.5684 67.3262 11.7402C67.998 10.9082 68.9961 10.4824 70.3203 10.4629H70.5137ZM69.0898 14.3066C68.7188 14.3066 68.377 14.418 68.0645 14.6406C67.752 14.8633 67.5352 15.1426 67.4141 15.4785V15.877C67.4141 16.5801 67.5723 17.1465 67.8887 17.5762C68.2051 18.0059 68.5996 18.2207 69.0723 18.2207C69.5605 18.2207 69.9434 18.041 70.2207 17.6816C70.502 17.3223 70.6426 16.8516 70.6426 16.2695C70.6426 15.6836 70.5 15.2109 70.2148 14.8516C69.9336 14.4883 69.5586 14.3066 69.0898 14.3066ZM73.1328 18.4316C73.1328 18.2441 73.1875 18.0879 73.2969 17.9629C73.4102 17.8379 73.5781 17.7754 73.8008 17.7754C74.0234 17.7754 74.1914 17.8379 74.3047 17.9629C74.4219 18.0879 74.4805 18.2441 74.4805 18.4316C74.4805 18.6113 74.4219 18.7617 74.3047 18.8828C74.1914 19.0039 74.0234 19.0645 73.8008 19.0645C73.5781 19.0645 73.4102 19.0039 73.2969 18.8828C73.1875 18.7617 73.1328 18.6113 73.1328 18.4316ZM79.7246 19H78.6348V11.7754L76.4492 12.5781V11.5938L79.5547 10.4277H79.7246V19ZM88.4902 19H82.9004V18.2207L85.8535 14.9395C86.291 14.4434 86.5918 14.041 86.7559 13.7324C86.9238 13.4199 87.0078 13.0977 87.0078 12.7656C87.0078 12.3203 86.873 11.9551 86.6035 11.6699C86.334 11.3848 85.9746 11.2422 85.5254 11.2422C84.9863 11.2422 84.5664 11.3965 84.2656 11.7051C83.9688 12.0098 83.8203 12.4355 83.8203 12.9824H82.7363C82.7363 12.1973 82.9883 11.5625 83.4922 11.0781C84 10.5938 84.6777 10.3516 85.5254 10.3516C86.3184 10.3516 86.9453 10.5605 87.4062 10.9785C87.8672 11.3926 88.0977 11.9453 88.0977 12.6367C88.0977 13.4766 87.5625 14.4766 86.4922 15.6367L84.207 18.1152H88.4902V19ZM89.7734 18.4316C89.7734 18.2441 89.8281 18.0879 89.9375 17.9629C90.0508 17.8379 90.2188 17.7754 90.4414 17.7754C90.6641 17.7754 90.832 17.8379 90.9453 17.9629C91.0625 18.0879 91.1211 18.2441 91.1211 18.4316C91.1211 18.6113 91.0625 18.7617 90.9453 18.8828C90.832 19.0039 90.6641 19.0645 90.4414 19.0645C90.2188 19.0645 90.0508 19.0039 89.9375 18.8828C89.8281 18.7617 89.7734 18.6113 89.7734 18.4316ZM98.1523 15.3613C98.1523 16.6309 97.9355 17.5742 97.502 18.1914C97.0684 18.8086 96.3906 19.1172 95.4688 19.1172C94.5586 19.1172 93.8848 18.8164 93.4473 18.2148C93.0098 17.6094 92.7832 16.707 92.7676 15.5078V14.0605C92.7676 12.8066 92.9844 11.875 93.418 11.2656C93.8516 10.6562 94.5312 10.3516 95.457 10.3516C96.375 10.3516 97.0508 10.6465 97.4844 11.2363C97.918 11.8223 98.1406 12.7285 98.1523 13.9551V15.3613ZM97.0684 13.8789C97.0684 12.9609 96.9395 12.293 96.6816 11.875C96.4238 11.4531 96.0156 11.2422 95.457 11.2422C94.9023 11.2422 94.498 11.4512 94.2441 11.8691C93.9902 12.2871 93.8594 12.9297 93.8516 13.7969V15.5312C93.8516 16.4531 93.9844 17.1348 94.25 17.5762C94.5195 18.0137 94.9258 18.2324 95.4688 18.2324C96.0039 18.2324 96.4004 18.0254 96.6582 17.6113C96.9199 17.1973 97.0566 16.5449 97.0684 15.6543V13.8789Z" fill="black"/>
</svg>
